<?xml version="1.0" encoding="utf-8"?>
<!-- Generator: Adobe Illustrator 12.0.0, SVG Export Plug-In . SVG Version: 6.00 Build 51448)  -->
<!DOCTYPE svg PUBLIC "-//W3C//DTD SVG 1.1//EN" "http://www.w3.org/Graphics/SVG/1.1/DTD/svg11.dtd" [
	<!ENTITY ns_svg "http://www.w3.org/2000/svg">
	<!ENTITY ns_xlink "http://www.w3.org/1999/xlink">
]>
<svg  version="1.1" xmlns="&ns_svg;" xmlns:xlink="&ns_xlink;" width="199.231" height="202.534" viewBox="0 0 199.231 202.534"
	 overflow="visible" enable-background="new 0 0 199.231 202.534" xml:space="preserve">
<g id="レイヤー_1">
</g>
<g id="_x32_">
	<g>
		<path d="M63.575,35.519c5.491,0,9.941-4.446,9.941-9.941V9.937c0-5.484-4.45-9.937-9.941-9.937c-5.486,0-9.94,4.452-9.94,9.937
			v15.639C53.634,31.072,58.088,35.519,63.575,35.519z"/>
		<path d="M136.873,35.519c5.484,0,9.938-4.446,9.938-9.941V9.937c0-5.484-4.454-9.937-9.938-9.937
			c-5.489,0-9.943,4.452-9.943,9.937v15.639C126.93,31.072,131.384,35.519,136.873,35.519z"/>
		<path d="M171.313,14.166h-15.77v11.41c0,10.301-8.374,18.679-18.671,18.679c-10.299,0-18.675-8.378-18.675-18.679v-11.41h-35.95
			v11.41c0,10.301-8.378,18.679-18.671,18.679c-10.299,0-18.675-8.378-18.675-18.679v-11.41H27.918C12.498,14.166,0,26.664,0,42.083
			v132.534c0,15.417,12.498,27.917,27.918,27.917h143.396c15.418,0,27.918-12.5,27.918-27.917V42.083
			C199.231,26.664,186.731,14.166,171.313,14.166z M185.647,174.617c0,7.903-6.431,14.333-14.334,14.333H27.918
			c-7.904,0-14.334-6.43-14.334-14.333V59.726h172.063V174.617z"/>
		<path d="M80.124,174.081c5.627,0,10.188-4.565,10.188-10.188c0-5.629-4.561-10.188-10.188-10.188s-10.188,4.559-10.188,10.188
			C69.936,169.515,74.497,174.081,80.124,174.081z"/>
		<path d="M80.124,135.09c5.627,0,10.188-4.559,10.188-10.188c0-5.623-4.561-10.188-10.188-10.188s-10.188,4.565-10.188,10.188
			C69.936,130.532,74.497,135.09,80.124,135.09z"/>
		<path d="M41.14,174.081c5.627,0,10.188-4.565,10.188-10.188c0-5.629-4.561-10.188-10.188-10.188
			c-5.627,0-10.188,4.559-10.188,10.188C30.952,169.515,35.513,174.081,41.14,174.081z"/>
		<path d="M41.14,135.09c5.627,0,10.188-4.559,10.188-10.188c0-5.623-4.561-10.188-10.188-10.188
			c-5.627,0-10.188,4.565-10.188,10.188C30.952,130.532,35.513,135.09,41.14,135.09z"/>
		<path d="M158.09,96.111c5.629,0,10.189-4.561,10.189-10.188c0-5.629-4.561-10.188-10.189-10.188
			c-5.625,0-10.187,4.559-10.187,10.188C147.903,91.55,152.465,96.111,158.09,96.111z"/>
		<path d="M119.107,96.111c5.627,0,10.188-4.561,10.188-10.188c0-5.629-4.562-10.188-10.188-10.188s-10.188,4.559-10.188,10.188
			C108.92,91.55,113.48,96.111,119.107,96.111z"/>
		<path d="M119.107,135.09c5.627,0,10.188-4.559,10.188-10.188c0-5.623-4.562-10.188-10.188-10.188s-10.188,4.565-10.188,10.188
			C108.92,130.532,113.48,135.09,119.107,135.09z"/>
		<path d="M158.09,135.09c5.629,0,10.189-4.559,10.189-10.188c0-5.623-4.561-10.188-10.189-10.188
			c-5.625,0-10.187,4.565-10.187,10.188C147.903,130.532,152.465,135.09,158.09,135.09z"/>
		<path d="M119.107,174.081c5.627,0,10.188-4.565,10.188-10.188c0-5.629-4.562-10.188-10.188-10.188s-10.188,4.559-10.188,10.188
			C108.92,169.515,113.48,174.081,119.107,174.081z"/>
		<path d="M80.124,96.111c5.627,0,10.188-4.561,10.188-10.188c0-5.629-4.561-10.188-10.188-10.188s-10.188,4.559-10.188,10.188
			C69.936,91.55,74.497,96.111,80.124,96.111z"/>
	</g>
</g>
</svg>
