<?xml version="1.0" encoding="utf-8"?>
<!-- Generator: Adobe Illustrator 12.0.0, SVG Export Plug-In . SVG Version: 6.00 Build 51448)  -->
<!DOCTYPE svg PUBLIC "-//W3C//DTD SVG 1.1//EN" "http://www.w3.org/Graphics/SVG/1.1/DTD/svg11.dtd" [
	<!ENTITY ns_svg "http://www.w3.org/2000/svg">
	<!ENTITY ns_xlink "http://www.w3.org/1999/xlink">
]>
<svg  version="1.1" xmlns="&ns_svg;" xmlns:xlink="&ns_xlink;" width="187.429" height="202.03" viewBox="0 0 187.429 202.03"
	 overflow="visible" enable-background="new 0 0 187.429 202.03" xml:space="preserve">
<g id="レイヤー_1">
</g>
<g id="_x32_">
	<g>
		<path d="M0.082,96.871C0.05,97.444,0,98.019,0,98.597v72.386c0,5.251,1.316,10.19,3.616,14.524l54.26-55.124L0.082,96.871z"/>
		<path d="M187.347,96.871l-57.796,33.512l54.262,55.124c2.301-4.334,3.616-9.273,3.616-14.524V98.597
			C187.429,98.019,187.378,97.444,187.347,96.871z"/>
		<path d="M93.714,151.164l-26.047-15.104l-57.213,58.112c5.484,4.873,12.683,7.857,20.595,7.857h125.329
			c7.913,0,15.114-2.984,20.597-7.857l-57.215-58.112L93.714,151.164z"/>
		<path d="M93.714,138.499l57.204-33.167V71.198H36.515v34.134L93.714,138.499z M61.311,83.981h64.5V92.5h-64.5V83.981z
			 M61.311,102.237h32.25v8.517h-32.25V102.237z"/>
		<path d="M25.562,60.244h136.311v38.737l22.753-13.195c-1.369-3.017-3.19-5.834-5.482-8.304L116.478,9.93
			C110.601,3.599,102.354,0,93.714,0S76.829,3.599,70.953,9.93L8.286,77.48c-2.293,2.472-4.114,5.288-5.483,8.304l22.759,13.197
			V60.244z"/>
	</g>
</g>
</svg>
