<?xml version="1.0" encoding="utf-8"?>
<!-- Generator: Adobe Illustrator 12.0.0, SVG Export Plug-In . SVG Version: 6.00 Build 51448)  -->
<!DOCTYPE svg PUBLIC "-//W3C//DTD SVG 1.1//EN" "http://www.w3.org/Graphics/SVG/1.1/DTD/svg11.dtd" [
	<!ENTITY ns_svg "http://www.w3.org/2000/svg">
	<!ENTITY ns_xlink "http://www.w3.org/1999/xlink">
]>
<svg  version="1.1" xmlns="&ns_svg;" xmlns:xlink="&ns_xlink;" width="236.634" height="241.044" viewBox="0 0 236.634 241.044"
	 overflow="visible" enable-background="new 0 0 236.634 241.044" xml:space="preserve">
<g id="レイヤー_1">
</g>
<g id="_x32_">
	<g>
		<path d="M236.634,59.666L62.929,45.902l-2.642-15c-2.429-13.69-13.322-24.3-27.083-26.338L2.351,0L0,15.875l30.855,4.576
			c6.912,1.019,12.402,6.355,13.614,13.243l24.93,141.289c2.337,13.26,13.855,22.922,27.324,22.925h108.154l3.213-16.054H96.726
			c-5.674,0.007-10.534-4.077-11.512-9.661l-3.493-19.771h133.507L236.634,59.666z"/>
		<path d="M102.849,206.519c-9.536,0-17.264,7.733-17.264,17.264c0,9.536,7.728,17.262,17.264,17.262
			c9.539,0,17.267-7.726,17.267-17.262C120.117,214.252,112.387,206.519,102.849,206.519z"/>
		<path d="M179.552,206.519c-9.539,0-17.262,7.733-17.262,17.264c0,9.536,7.727,17.262,17.262,17.262s17.268-7.726,17.268-17.262
			C196.819,214.252,189.089,206.519,179.552,206.519z"/>
	</g>
</g>
</svg>
