<?xml version="1.0" encoding="utf-8"?>
<!-- Generator: Adobe Illustrator 12.0.0, SVG Export Plug-In . SVG Version: 6.00 Build 51448)  -->
<!DOCTYPE svg PUBLIC "-//W3C//DTD SVG 1.1//EN" "http://www.w3.org/Graphics/SVG/1.1/DTD/svg11.dtd" [
	<!ENTITY ns_svg "http://www.w3.org/2000/svg">
	<!ENTITY ns_xlink "http://www.w3.org/1999/xlink">
]>
<svg  version="1.1" xmlns="&ns_svg;" xmlns:xlink="&ns_xlink;" width="170.771" height="195.181" viewBox="0 0 170.771 195.181"
	 overflow="visible" enable-background="new 0 0 170.771 195.181" xml:space="preserve">
<g id="レイヤー_1">
</g>
<g id="_x32_">
	<g>
		<path d="M131.894,117.355c-12.685-2.598-4.017-9.416,5.768-12.039c4.367-1.172,6.035-4.595,5.634-7.726
			c0.401-3.125-1.269-6.553-5.634-7.725c-9.784-2.623-18.452-9.44-5.768-12.037c12.69-2.596,25.609-8.878,19.979-18.62
			c-5.627-9.757-17.53-1.704-26.121,7.983c-8.589,9.69-10.159-1.222-7.54-11.01c1.17-4.365-0.963-7.523-3.869-8.745
			c-2.516-1.904-6.315-2.179-9.508,1.02c-7.163,7.167-17.404,11.259-13.307-1.026c4.093-12.28,5.114-26.62-6.142-26.62
			c-11.263,0-10.24,14.339-6.146,26.62c4.099,12.285-6.144,8.191-13.307,1.026c-3.192-3.199-6.993-2.924-9.509-1.02
			c-2.905,1.222-5.036,4.38-3.87,8.745c2.626,9.788,1.054,20.7-7.54,11.01c-8.589-9.687-20.489-17.74-26.119-7.983
			c-5.629,9.742,7.291,16.022,19.978,18.62c12.687,2.597,4.02,9.415-5.766,12.037c-4.367,1.172-6.035,4.6-5.636,7.725
			c-0.398,3.13,1.27,6.553,5.636,7.726c9.786,2.623,18.453,9.441,5.766,12.039c-12.687,2.596-25.606,8.877-19.978,18.625
			c5.63,9.751,17.528,1.697,26.119-7.984c8.594-9.695,10.167,1.218,7.54,11.004c-1.167,4.366,0.964,7.524,3.87,8.746
			c2.516,1.903,6.316,2.179,9.509-1.02c7.163-7.167,17.405-11.256,13.307,1.025c-4.094,12.287-5.116,26.62,6.146,26.62
			c11.256,0,10.234-14.333,6.142-26.62c-4.098-12.281,6.144-8.19,13.307-1.025c3.19,3.198,6.992,2.923,9.508,1.02
			c2.906-1.222,5.039-4.38,3.869-8.746c-2.619-9.786-1.047-20.699,7.54-11.004c8.591,9.682,20.494,17.735,26.121,7.984
			C157.503,126.232,144.584,119.951,131.894,117.355z M90.505,75.071c0-4.105,6.861-6.837,13.852-10.34
			c0.467,7.81,1.527,15.115-2.028,17.17c-3.366,1.942-8.501,4.91-11.823,6.829C90.505,84.895,90.505,78.959,90.505,75.071z
			 M66.412,64.73c6.998,3.503,13.854,6.235,13.854,10.34c0,3.891,0,9.824,0,13.659c-3.318-1.919-8.46-4.887-11.821-6.829
			C64.886,79.846,65.945,72.54,66.412,64.73z M47.439,97.591c6.53-4.306,12.328-8.88,15.883-6.825
			c3.368,1.942,8.504,4.906,11.824,6.825c-3.32,1.92-8.456,4.884-11.824,6.828C59.768,106.476,53.97,101.899,47.439,97.591z
			 M80.266,120.114c0,4.104-6.855,6.835-13.854,10.339c-0.467-7.807-1.526-15.116,2.032-17.171c3.361-1.942,8.503-4.91,11.821-6.828
			C80.266,110.289,80.266,116.223,80.266,120.114z M88.342,102.709h-2.955h-2.961l-1.476-2.556l-1.479-2.562l1.479-2.562
			l1.476-2.554h2.961h2.955l1.477,2.554l1.476,2.562l-1.476,2.562L88.342,102.709z M104.356,130.453
			c-6.99-3.504-13.852-6.235-13.852-10.339c0-3.891,0-9.825,0-13.66c3.322,1.918,8.457,4.885,11.823,6.828
			C105.884,115.336,104.823,122.646,104.356,130.453z M107.448,104.419c-3.368-1.944-8.503-4.908-11.827-6.828
			c3.324-1.919,8.459-4.883,11.827-6.825c3.555-2.055,9.354,2.52,15.881,6.825C116.802,101.899,111.003,106.476,107.448,104.419z"/>
		<path d="M85.387,12.968c3.582,0,6.481-2.9,6.481-6.487C91.868,2.907,88.969,0,85.387,0C81.804,0,78.9,2.907,78.9,6.481
			C78.9,10.068,81.804,12.968,85.387,12.968z"/>
		<path d="M85.387,182.215c-3.583,0-6.486,2.901-6.486,6.485c0,3.581,2.903,6.48,6.486,6.48c3.582,0,6.481-2.899,6.481-6.48
			C91.868,185.117,88.969,182.215,85.387,182.215z"/>
		<path d="M53.676,42.662c3.095-1.786,4.155-5.754,2.371-8.852c-1.791-3.104-5.756-4.165-8.857-2.377
			c-3.105,1.792-4.165,5.76-2.376,8.858C46.604,43.394,50.573,44.454,53.676,42.662z"/>
		<path d="M117.103,152.522c-3.103,1.787-4.173,5.754-2.379,8.85c1.792,3.106,5.756,4.173,8.859,2.378
			c3.101-1.792,4.161-5.761,2.367-8.858C124.166,151.794,120.197,150.731,117.103,152.522z"/>
		<path d="M21.963,97.591c0-3.58-2.907-6.48-6.488-6.48c-3.576,0-6.481,2.901-6.481,6.48c0,3.582,2.905,6.481,6.481,6.481
			C19.056,104.072,21.963,101.172,21.963,97.591z"/>
		<path d="M161.778,97.591c0-3.58-2.908-6.48-6.486-6.48c-3.579,0-6.479,2.896-6.479,6.48c0,3.582,2.9,6.481,6.479,6.481
			C158.87,104.072,161.778,101.172,161.778,97.591z"/>
		<path d="M53.676,152.522c-3.103-1.791-7.072-0.727-8.858,2.369c-1.793,3.098-0.734,7.066,2.371,8.858
			c3.102,1.795,7.066,0.729,8.855-2.378C57.839,158.276,56.773,154.309,53.676,152.522z"/>
		<path d="M117.103,42.662c3.095,1.792,7.063,0.732,8.848-2.371c1.794-3.098,0.733-7.066-2.367-8.858
			c-3.104-1.788-7.067-0.726-8.859,2.377C112.936,36.908,114,40.876,117.103,42.662z"/>
		<path d="M3.241,57.655c3.104,1.792,7.064,0.726,8.856-2.377c1.788-3.098,0.728-7.066-2.375-8.852
			c-3.099-1.793-7.066-0.728-8.848,2.369C-0.921,51.901,0.138,55.86,3.241,57.655z"/>
		<path d="M167.527,137.532c-3.097-1.788-7.065-0.729-8.857,2.372c-1.784,3.101-0.726,7.066,2.377,8.861
			c3.098,1.784,7.063,0.727,8.857-2.377C171.688,143.292,170.63,139.323,167.527,137.532z"/>
		<path d="M3.241,137.532c-3.103,1.791-4.163,5.76-2.367,8.856c1.782,3.104,5.749,4.163,8.848,2.377
			c3.101-1.795,4.163-5.761,2.375-8.859C10.305,136.802,6.345,135.744,3.241,137.532z"/>
		<path d="M167.527,57.655c3.103-1.795,4.161-5.754,2.377-8.86c-1.795-3.097-5.76-4.163-8.863-2.369
			c-3.097,1.786-4.155,5.754-2.371,8.852C160.462,58.381,164.424,59.447,167.527,57.655z"/>
	</g>
</g>
</svg>
