<?xml version="1.0" encoding="utf-8"?>
<!-- Generator: Adobe Illustrator 12.0.0, SVG Export Plug-In . SVG Version: 6.00 Build 51448)  -->
<!DOCTYPE svg PUBLIC "-//W3C//DTD SVG 1.1//EN" "http://www.w3.org/Graphics/SVG/1.1/DTD/svg11.dtd" [
	<!ENTITY ns_svg "http://www.w3.org/2000/svg">
	<!ENTITY ns_xlink "http://www.w3.org/1999/xlink">
]>
<svg  version="1.1" xmlns="&ns_svg;" xmlns:xlink="&ns_xlink;" width="215.786" height="165.834" viewBox="0 0 215.786 165.834"
	 overflow="visible" enable-background="new 0 0 215.786 165.834" xml:space="preserve">
<g id="レイヤー_1">
</g>
<g id="_x32_">
	<g>
		<path d="M143.874,87.066l70.868,61.781c0.675-2.213,1.044-4.559,1.044-6.988V24.373L143.874,87.066z"/>
		<path d="M107.893,94.341c3.038-0.006,6.031-1.052,8.476-3.178l94.187-82.11C206.163,3.542,199.405,0,191.809,0H23.977
			C16.381,0,9.623,3.542,5.23,9.053l94.187,82.11C101.858,93.289,104.855,94.335,107.893,94.341z"/>
		<path d="M0,24.373v117.487c0,2.43,0.369,4.775,1.042,6.988l70.869-61.784L0,24.373z"/>
		<path d="M126.215,102.46c-5.24,4.568-11.801,6.87-18.323,6.863c-6.522,0.007-13.086-2.299-18.323-6.863l-6.256-5.453
			L9.757,161.131c3.981,2.941,8.89,4.703,14.22,4.703h167.833c5.33,0,10.236-1.762,14.219-4.703l-73.557-64.124L126.215,102.46z"/>
	</g>
</g>
</svg>
