<?xml version="1.0" encoding="utf-8"?>
<!-- Generator: Adobe Illustrator 12.0.0, SVG Export Plug-In . SVG Version: 6.00 Build 51448)  -->
<!DOCTYPE svg PUBLIC "-//W3C//DTD SVG 1.1//EN" "http://www.w3.org/Graphics/SVG/1.1/DTD/svg11.dtd" [
	<!ENTITY ns_svg "http://www.w3.org/2000/svg">
	<!ENTITY ns_xlink "http://www.w3.org/1999/xlink">
]>
<svg  version="1.1" xmlns="&ns_svg;" xmlns:xlink="&ns_xlink;" width="155.669" height="187.977" viewBox="0 0 155.669 187.977"
	 overflow="visible" enable-background="new 0 0 155.669 187.977" xml:space="preserve">
<g id="レイヤー_1">
</g>
<g id="_x32_">
	<g>
		<path d="M107.478,104.69c-2.141,0-3.873,1.735-3.873,3.875c0,2.143,1.732,3.877,3.873,3.877c2.143,0,3.877-1.734,3.877-3.877
			S109.621,104.69,107.478,104.69z"/>
		<path d="M106.39,51.525c2.142,0,3.875-1.733,3.875-3.875s-1.733-3.875-3.875-3.875c-2.143,0-3.876,1.733-3.876,3.875
			S104.248,51.525,106.39,51.525z"/>
		<path d="M123.185,67.705c-2.141,0-3.876,1.735-3.876,3.877c0,2.141,1.735,3.875,3.876,3.875c2.144,0,3.879-1.735,3.879-3.875
			C127.064,69.439,125.329,67.705,123.185,67.705z"/>
		<path d="M94.426,80.76c-2.144,0-3.877,1.733-3.877,3.875c0,2.141,1.733,3.875,3.877,3.875c2.141,0,3.873-1.733,3.873-3.875
			C98.299,82.493,96.567,80.76,94.426,80.76z"/>
		<path d="M32.419,48.125c-2.144,0-3.877,1.733-3.877,3.875c0,2.141,1.733,3.875,3.877,3.875c2.141,0,3.874-1.735,3.874-3.875
			C36.293,49.858,34.56,48.125,32.419,48.125z"/>
		<path d="M23.718,80.147c-2.142,0-3.876,1.735-3.876,3.875c0,2.142,1.734,3.877,3.876,3.877c2.141,0,3.875-1.735,3.875-3.877
			C27.593,81.882,25.859,80.147,23.718,80.147z"/>
		<path d="M77.016,29.63c-2.14,0-3.873,1.733-3.873,3.875c0,2.142,1.733,3.875,3.873,3.875c2.143,0,3.877-1.733,3.877-3.875
			C80.893,31.363,79.159,29.63,77.016,29.63z"/>
		<path d="M134.133,174.923h-0.671l-2.843-27.808c3.289-0.334,5.87-3.082,5.87-6.46c0-3.117-2.191-5.714-5.11-6.36
			c14.946-14.187,24.284-34.227,24.29-56.461C155.664,34.844,120.828,0,77.833,0C34.846,0,0.006,34.844,0,77.834
			c0.006,22.236,9.345,42.275,24.291,56.461c-2.919,0.646-5.111,3.243-5.111,6.36c0,3.38,2.582,6.126,5.871,6.462l-2.843,27.806
			h-0.67c-3.601,0-6.527,2.923-6.527,6.527c0,3.604,2.926,6.526,6.527,6.526h112.596c3.602,0,6.527-2.923,6.527-6.526
			C140.661,177.846,137.735,174.923,134.133,174.923z M55.263,90.208c-2.143,0-3.875-1.733-3.875-3.875s1.732-3.875,3.875-3.875
			c2.141,0,3.875,1.733,3.875,3.875S57.404,90.208,55.263,90.208z M61.178,112.92c0-2.143,1.732-3.877,3.877-3.877
			c2.141,0,3.873,1.734,3.873,3.877c0,2.141-1.732,3.875-3.873,3.875C62.911,116.795,61.178,115.061,61.178,112.92z M90.887,166.378
			H64.78v-8.7h26.107V166.378L90.887,166.378z M114.835,134.13H65.047v-10.216c9.146-1.214,17.7-4.822,21.926-8.755
			c-7.272-4.593-13.876-12.889-16.693-17.217c1.479,0.064,6.241-0.872,9.688-3.925c-6.884-5.017-13.294-16.593-13.294-16.593
			s3.429-0.369,7.802-3.914c-8.186-4.724-16.089-21.375-16.089-21.375s-7.904,16.652-16.088,21.375
			c4.373,3.544,7.802,3.914,7.802,3.914s-6.414,11.576-13.291,16.593c3.437,3.053,8.204,3.989,9.682,3.925
			c-2.816,4.329-9.414,12.625-16.694,17.217c4.226,3.933,12.78,7.541,21.928,8.755v10.216H40.838
			c-3.837-2.528-7.42-5.406-10.657-8.645c-12.2-12.213-19.734-29.026-19.741-47.652c0.007-18.625,7.541-35.44,19.741-47.653
			C42.395,17.975,59.21,10.443,77.835,10.441c18.623,0.002,35.438,7.534,47.655,19.739c12.2,12.213,19.733,29.028,19.739,47.653
			c-0.006,18.625-7.539,35.439-19.739,47.652C122.249,128.724,118.666,131.602,114.835,134.13z"/>
	</g>
</g>
</svg>
