<?xml version="1.0" encoding="utf-8"?>
<!-- Generator: Adobe Illustrator 12.0.0, SVG Export Plug-In . SVG Version: 6.00 Build 51448)  -->
<!DOCTYPE svg PUBLIC "-//W3C//DTD SVG 1.1//EN" "http://www.w3.org/Graphics/SVG/1.1/DTD/svg11.dtd" [
	<!ENTITY ns_svg "http://www.w3.org/2000/svg">
	<!ENTITY ns_xlink "http://www.w3.org/1999/xlink">
]>
<svg  version="1.1" id="レイヤー_1" xmlns="&ns_svg;" xmlns:xlink="&ns_xlink;" width="243.978" height="243.984"
	 viewBox="0 0 243.978 243.984" overflow="visible" enable-background="new 0 0 243.978 243.984" xml:space="preserve">
<path fill="none" stroke="#000000" stroke-width="7" d="M164.563,76.657c0,23.162-18.775,41.938-41.935,41.938
	c-23.161,0-41.937-18.775-41.937-41.938c0-23.158,18.775-41.934,41.937-41.934C145.788,34.724,164.563,53.499,164.563,76.657z"/>
<path fill="none" stroke="#000000" stroke-width="7" d="M42.439,192.081c0-44.286,35.901-68.456,80.19-68.456
	c44.287,0,80.188,24.17,80.188,68.456"/>
<path fill="none" stroke="#000000" stroke-width="7" d="M240.478,121.992c0,65.442-53.05,118.492-118.495,118.492
	C56.548,240.484,3.5,187.435,3.5,121.992S56.548,3.5,121.982,3.5C187.428,3.5,240.478,56.55,240.478,121.992z"/>
</svg>
