<?xml version="1.0" encoding="utf-8"?>
<!-- Generator: Adobe Illustrator 12.0.0, SVG Export Plug-In . SVG Version: 6.00 Build 51448)  -->
<!DOCTYPE svg PUBLIC "-//W3C//DTD SVG 1.1//EN" "http://www.w3.org/Graphics/SVG/1.1/DTD/svg11.dtd" [
	<!ENTITY ns_svg "http://www.w3.org/2000/svg">
	<!ENTITY ns_xlink "http://www.w3.org/1999/xlink">
]>
<svg  version="1.1" xmlns="&ns_svg;" xmlns:xlink="&ns_xlink;" width="180.69" height="196.016" viewBox="0 0 180.69 196.016"
	 overflow="visible" enable-background="new 0 0 180.69 196.016" xml:space="preserve">
<g id="レイヤー_1">
</g>
<g id="_x32_">
	<g>
		<path d="M168.717,71.524c-16.654-1.663-32.478,3.331-39.139,14.16c0,0-6.017,0.054-13.939,0.126
			c1.668-13.585,20.218-20.147,43.441-31.981c31.356-15.982,27.638-29.931-4.996-52.186c-6.106-4.162-10.547,0-1.943,7.774
			c17.826,16.098,14.989,20.26,7.495,26.923c-5.135,4.562-9.95,7.4-12.491,5.555c-6.107-4.445-12.249-15.048-15.82-18.878
			c-3.886-4.165-9.119-1.822-4.443,5.831c6.106,9.992,13.046,17.484,5.275,22.482c-7.773,4.998-19.153,9.575-26.232,17.484
			c-7.072,7.91-8.085,14.185-8.079,17.146c-2.625,0.027-5.165,0.046-7.5,0.065c-2.336-0.02-4.874-0.039-7.5-0.065
			c0.006-2.961-1.007-9.236-8.082-17.146c-7.077-7.91-18.457-12.486-26.229-17.484c-7.774-4.998-0.833-12.49,5.273-22.482
			c4.677-7.653-0.555-9.996-4.443-5.831c-3.574,3.831-9.713,14.434-15.82,18.878c-2.541,1.845-7.359-0.994-12.491-5.555
			c-7.494-6.664-10.331-10.825,7.494-26.923c8.604-7.774,4.163-11.938-1.943-7.774C-6.028,23.899-9.748,37.848,21.609,53.83
			C44.834,65.663,63.383,72.225,65.05,85.811c-7.923-0.073-13.939-0.126-13.939-0.126c-6.663-10.829-22.485-15.823-39.139-14.16
			c-16.654,1.662,3.33,43.302,32.476,44.965c0,0-6.552,79.526,45.897,79.526c52.449,0,45.896-79.526,45.896-79.526
			C165.386,114.826,185.371,73.186,168.717,71.524z M42.669,99.918c-1.888,3.536-8.021,2.83-12.977,0.234
			c-4.954-2.596-10.616-10.379-7.785-14.158c2.831-3.773,10.616-0.707,15.1,2.126C41.49,90.95,44.559,96.379,42.669,99.918z
			 M67.861,133.146c-3.218,0-5.827-2.611-5.827-5.827c0-3.218,2.609-5.831,5.827-5.831c3.22,0,5.83,2.611,5.83,5.831
			C73.691,130.534,71.081,133.146,67.861,133.146z M90.345,173.116c-8.738,0-15.823-7.087-15.823-15.823s7.085-15.819,15.823-15.819
			c8.736,0,15.822,7.083,15.822,15.819S99.082,173.116,90.345,173.116z M112.83,133.146c-3.222,0-5.831-2.611-5.831-5.827
			c0-3.218,2.609-5.831,5.831-5.831c3.218,0,5.826,2.611,5.826,5.831C118.656,130.534,116.047,133.146,112.83,133.146z
			 M150.999,100.152c-4.958,2.596-11.091,3.302-12.979-0.234c-1.887-3.539,1.18-8.968,5.663-11.797
			c4.482-2.833,12.266-5.899,15.099-2.126C161.613,89.773,155.949,97.556,150.999,100.152z"/>
	</g>
</g>
</svg>
