<?xml version="1.0" encoding="utf-8"?>
<!-- Generator: Adobe Illustrator 12.0.0, SVG Export Plug-In . SVG Version: 6.00 Build 51448)  -->
<!DOCTYPE svg PUBLIC "-//W3C//DTD SVG 1.1//EN" "http://www.w3.org/Graphics/SVG/1.1/DTD/svg11.dtd" [
	<!ENTITY ns_svg "http://www.w3.org/2000/svg">
	<!ENTITY ns_xlink "http://www.w3.org/1999/xlink">
]>
<svg  version="1.1" xmlns="&ns_svg;" xmlns:xlink="&ns_xlink;" width="134.199" height="192.472" viewBox="0 0 134.199 192.472"
	 overflow="visible" enable-background="new 0 0 134.199 192.472" xml:space="preserve">
<g id="レイヤー_1">
</g>
<g id="_x32_">
	<g>
		<path d="M80.344,59.586v-9.146H53.854v9.146C23.143,65.734,0,92.848,0,125.371c0,37.064,30.042,67.102,67.1,67.102
			c37.061,0,67.1-30.037,67.1-67.102C134.199,92.848,111.06,65.734,80.344,59.586z M96.627,68.531
			c2.236,0.767,4.1,2.383,4.024,3.866c-0.076,1.47-2.125,2.102-4.471,1.147c-2.352-0.94-4.007-2.972-3.817-4.267
			C92.559,67.969,94.399,67.77,96.627,68.531z M76.904,75.72c1.12-1.374,2.197-2.66,3.233-3.847c0.77,1.321,1.566,2.759,2.376,4.3
			c2.073,0.414,4.16,0.85,6.248,1.299c-1.569,1.019-3.186,2.094-4.838,3.212c0.228,1.823,0.458,3.753,0.677,5.757
			c-1.898-1.126-3.783-2.224-5.644-3.286c-2.042,0.718-4.11,1.462-6.193,2.226c0.624-1.916,1.235-3.756,1.833-5.493
			c-1.387-1.366-2.74-2.665-4.044-3.896C72.667,75.89,74.79,75.795,76.904,75.72z M58.744,65.027
			c0.664-1.068,2.979-1.573,5.184-1.502c2.196,0.073,3.66,0.688,3.227,1.769c-0.434,1.075-2.788,2.152-5.219,2.063
			C59.506,67.287,58.084,66.083,58.744,65.027z M14.869,141.543c-1.93-0.487-3.331-2.963-3.282-5.583
			c0.048-2.613,1.521-4.49,3.453-4.126c1.926,0.356,3.557,2.908,3.501,5.653C18.487,140.235,16.784,142.016,14.869,141.543z
			 M22.912,95.56c-0.533,2.649-2.689,4.821-4.71,4.797c-2.019-0.017-3.175-2.143-2.695-4.699c0.481-2.565,2.486-4.66,4.559-4.725
			C22.136,90.868,23.444,92.914,22.912,95.56z M38.512,125.177c-1.769-1.307-3.498-2.598-5.181-3.864
			c-1.88,0.893-3.707,1.773-5.471,2.639c0.504-2.218,1.037-4.449,1.6-6.677c-1.208-1.736-2.376-3.443-3.495-5.116
			c1.854-0.185,3.777-0.37,5.761-0.553c1.125-1.986,2.291-3.979,3.48-5.957c0.592,2.092,1.217,4.214,1.868,6.373
			c2.002,0.501,4.054,1.009,6.153,1.539c-1.741,1.513-3.451,3.028-5.123,4.531C38.213,120.448,38.351,122.816,38.512,125.177z
			 M50.153,180.373c-2.376-0.162-4.628-1.322-4.957-2.861c-0.329-1.526,1.476-2.718,4.002-2.417c2.52,0.285,4.69,1.881,4.873,3.275
			C54.253,179.771,52.529,180.526,50.153,180.373z M52.107,147.926c-2.844-0.365-5.022-2.961-4.879-5.893
			c0.144-2.917,2.6-5.081,5.503-4.745c2.898,0.333,5.108,3.07,4.905,6.023C57.432,146.266,54.945,148.289,52.107,147.926z
			 M56.306,102.18c-2.897-0.224-4.849-2.771-4.395-5.592c0.461-2.827,3.097-4.896,5.919-4.725c2.814,0.173,4.826,2.567,4.442,5.438
			C61.889,100.174,59.196,102.4,56.306,102.18z M76.396,170.68c-1.757-0.872-3.55-1.789-5.373-2.75
			c-1.973,0.636-3.917,1.239-5.821,1.82c0.442-1.57,0.909-3.252,1.404-5.021c-1.467-1.438-2.961-2.931-4.463-4.482
			c2.196-0.046,4.414-0.104,6.643-0.172c1.132-1.686,2.296-3.439,3.487-5.253c0.824,2.001,1.638,3.941,2.427,5.799
			c2.174,0.473,4.34,0.93,6.478,1.37c-1.763,1.236-3.504,2.426-5.213,3.567C76.11,167.371,76.259,169.086,76.396,170.68z
			 M90.252,181.028c-0.598,1.039-2.863,1.518-5.067,1.455c-2.212-0.068-3.738-0.673-3.378-1.745
			c0.359-1.056,2.668-2.135,5.111-2.024C89.363,178.798,90.843,179.994,90.252,181.028z M100.245,147.17
			c-0.446,2.87-3.083,4.981-5.925,4.797c-2.836-0.183-4.869-2.62-4.487-5.545c0.37-2.92,3.072-5.16,5.978-4.938
			C98.715,141.722,100.685,144.3,100.245,147.17z M99.236,106.343c-2.898-0.35-5.112-3.055-4.919-5.962
			c0.192-2.912,2.653-4.896,5.482-4.536c2.829,0.371,5.012,2.932,4.888,5.816C104.563,104.544,102.127,106.684,99.236,106.343z
			 M118.822,132.233c-1.892,0.927-3.842,1.865-5.833,2.799c0.646-2.267,1.264-4.547,1.86-6.825
			c-1.314-1.785-2.667-3.592-4.051-5.419c2.152-0.112,4.261-0.226,6.311-0.336c1.084-2.002,2.138-3.979,3.151-5.933
			c0.741,2.181,1.455,4.361,2.135,6.517c1.89,0.553,3.715,1.089,5.47,1.613c-1.425,1.428-2.915,2.891-4.445,4.36
			c0.081,2.289,0.136,4.565,0.163,6.813C122.053,134.654,120.463,133.458,118.822,132.233z"/>
		<path d="M67.1,41.205c4.229,0,7.652-3.427,7.652-7.654c0-4.226-3.424-7.652-7.652-7.652c-4.227,0-7.649,3.427-7.649,7.652
			C59.45,37.778,62.873,41.205,67.1,41.205z"/>
		<path d="M67.1,15.306c4.229,0,7.652-3.427,7.652-7.654C74.752,3.427,71.328,0,67.1,0c-4.227,0-7.649,3.427-7.649,7.652
			C59.45,11.879,62.873,15.306,67.1,15.306z"/>
	</g>
</g>
</svg>
