<?xml version="1.0" encoding="utf-8"?>
<!-- Generator: Adobe Illustrator 12.0.0, SVG Export Plug-In . SVG Version: 6.00 Build 51448)  -->
<!DOCTYPE svg PUBLIC "-//W3C//DTD SVG 1.1//EN" "http://www.w3.org/Graphics/SVG/1.1/DTD/svg11.dtd" [
	<!ENTITY ns_svg "http://www.w3.org/2000/svg">
	<!ENTITY ns_xlink "http://www.w3.org/1999/xlink">
]>
<svg  version="1.1" xmlns="&ns_svg;" xmlns:xlink="&ns_xlink;" width="184.1" height="198.667" viewBox="0 0 184.1 198.667"
	 overflow="visible" enable-background="new 0 0 184.1 198.667" xml:space="preserve">
<g id="レイヤー_1">
</g>
<g id="_x32_">
	<g>
		<path d="M92.046,0c-27.891,0-54.14,24.994-44.3,73.142c1.96,9.563,7.217,20.28,14.386,31.313
			c8.963-8.092,17.709-16.504,25.388-24.767c-2.458-2.788-4.79-5.549-6.953-8.267c-17.828-22.42-14.768-49.869,11.479-49.869
			c26.258,0,29.315,27.449,11.489,49.869C70.723,112.687,0,163.127,0,163.127l32.411,7.62l0.571,27.919
			c0,0,93.522-77.379,103.369-125.525C146.194,24.994,119.938,0,92.046,0z"/>
		<path d="M123.165,114.575c-7.05,10.05-15.912,20.91-26.544,32.561c26.823,28.634,54.497,51.531,54.497,51.531l2.936-27.919
			l30.046-7.62C184.1,163.127,153.466,141.28,123.165,114.575z"/>
	</g>
</g>
</svg>
