<?xml version="1.0" encoding="utf-8"?>
<!-- Generator: Adobe Illustrator 12.0.0, SVG Export Plug-In . SVG Version: 6.00 Build 51448)  -->
<!DOCTYPE svg PUBLIC "-//W3C//DTD SVG 1.1//EN" "http://www.w3.org/Graphics/SVG/1.1/DTD/svg11.dtd" [
	<!ENTITY ns_svg "http://www.w3.org/2000/svg">
	<!ENTITY ns_xlink "http://www.w3.org/1999/xlink">
]>
<svg  version="1.1" xmlns="&ns_svg;" xmlns:xlink="&ns_xlink;" width="242.107" height="208.639" viewBox="0 0 242.107 208.639"
	 overflow="visible" enable-background="new 0 0 242.107 208.639" xml:space="preserve">
<g id="レイヤー_1">
</g>
<g id="_x32_">
	<g>
		<path fill="#A58F86" d="M136.626,80.186c0-6.713-5.476-12.16-12.222-12.16c-6.75,0-12.221,5.447-12.221,12.16
			c0,11.553-9.418,20.921-21.035,20.921v107.532h66.513V101.107C146.042,101.107,136.626,91.738,136.626,80.186z M111.734,182.05
			h-10.557v-14.429h10.557V182.05z M111.734,154.602h-10.557v-14.431h10.557V154.602z M111.734,127.154h-10.557v-14.433h10.557
			V127.154z M129.681,182.05h-10.554v-14.429h10.554V182.05z M129.681,154.602h-10.554v-14.431h10.554V154.602z M129.681,127.154
			h-10.554v-14.433h10.554V127.154z M129.681,100.405h-10.554V88.086h10.554V100.405z M147.632,182.05h-10.561v-14.429h10.561
			V182.05z M147.632,154.602h-10.561v-14.431h10.561V154.602z M147.632,127.154h-10.561v-14.433h10.561V127.154z"/>
		<path fill="#A58F86" d="M46.817,67.324H33.093v13.725L6.698,107.443v101.195h66.511V107.443L46.817,81.048V67.324z M27.286,182.05
			H16.728v-14.429h10.558V182.05z M27.286,154.602H16.728v-14.431h10.558V154.602z M27.286,127.154H16.728v-14.433h10.558V127.154z
			 M52.622,112.722h10.56v14.433h-10.56V112.722z M52.622,140.171h10.56v14.431h-10.56V140.171z M52.622,167.621h10.56v14.429
			h-10.56V167.621z M36.216,91.996h7.477v8.727h-7.477V91.996z M45.234,182.05H34.676v-14.429h10.558V182.05z M45.234,154.602
			H34.676v-14.431h10.558V154.602z M45.234,127.154H34.676v-14.433h10.558V127.154z"/>
		<path fill="#A58F86" d="M219.06,71.546l-10.209-10.204l-10.206,10.204h-23.05v137.093h66.513V71.546H219.06z M196.185,182.05
			h-10.561v-14.429h10.561V182.05z M196.185,154.602h-10.561v-14.431h10.561V154.602z M196.185,127.154h-10.561v-14.433h10.561
			V127.154z M196.185,99.701h-10.561V85.272h10.561V99.701z M214.129,182.05h-10.554v-14.429h10.554V182.05z M214.129,154.602
			h-10.554v-14.431h10.554V154.602z M214.129,127.154h-10.554v-14.433h10.554V127.154z M214.129,99.701h-10.554V85.272h10.554
			V99.701z M232.078,182.05H221.52v-14.429h10.559V182.05z M232.078,154.602H221.52v-14.431h10.559V154.602z M232.078,127.154
			H221.52v-14.433h10.559V127.154z M232.078,99.701H221.52V85.272h10.559V99.701z"/>
	</g>
	<polygon fill="#A58F86" points="153.027,17.108 156.954,25.064 165.733,26.34 159.381,32.532 160.881,41.276 153.027,37.148 
		145.175,41.276 146.675,32.532 140.322,26.34 149.101,25.064 	"/>
	<polygon fill="#A58F86" points="11.743,47.907 15.373,55.261 23.487,56.439 17.616,62.164 19.002,70.246 11.743,66.43 
		4.485,70.246 5.872,62.164 0,56.439 8.114,55.261 	"/>
	<polygon fill="#A58F86" points="66.466,0 70.096,7.354 78.21,8.533 72.339,14.257 73.725,22.339 66.466,18.523 59.208,22.339 
		60.595,14.257 54.723,8.533 62.837,7.354 	"/>
	<circle fill="#A58F86" cx="86.85" cy="65.519" r="6.28"/>
	<circle fill="#A58F86" cx="203.117" cy="40.91" r="6.281"/>
</g>
</svg>
