<?xml version="1.0" encoding="utf-8"?>
<!-- Generator: Adobe Illustrator 12.0.0, SVG Export Plug-In . SVG Version: 6.00 Build 51448)  -->
<!DOCTYPE svg PUBLIC "-//W3C//DTD SVG 1.1//EN" "http://www.w3.org/Graphics/SVG/1.1/DTD/svg11.dtd" [
	<!ENTITY ns_svg "http://www.w3.org/2000/svg">
	<!ENTITY ns_xlink "http://www.w3.org/1999/xlink">
]>
<svg  version="1.1" xmlns="&ns_svg;" xmlns:xlink="&ns_xlink;" width="141.546" height="189.61" viewBox="0 0 141.546 189.61"
	 overflow="visible" enable-background="new 0 0 141.546 189.61" xml:space="preserve">
<g id="レイヤー_1">
</g>
<g id="_x32_">
	<g>
		<path d="M59.351,24.777l-1.893,11.045c-0.151,0.877,0.21,1.765,0.93,2.287c0.723,0.526,1.678,0.594,2.467,0.182l9.917-5.216
			l9.918,5.216c0.789,0.413,1.744,0.342,2.467-0.182c0.718-0.522,1.081-1.409,0.929-2.287l-1.892-11.045l8.022-7.817
			c0.638-0.626,0.865-1.558,0.593-2.402c-0.275-0.848-1.009-1.466-1.891-1.596L77.83,11.351L72.871,1.303
			C72.476,0.507,71.664,0,70.772,0c-0.891,0-1.703,0.507-2.098,1.303l-4.959,10.047l-11.089,1.611
			c-0.882,0.13-1.615,0.748-1.891,1.596c-0.272,0.844-0.045,1.776,0.592,2.402L59.351,24.777z"/>
		<path d="M108.406,125.033c16.287-7.179,20.22-19.988,20.22-33.832c-8.987,2.564-25.273,5.129-35.948-5.124
			C105.597,80.44,113.46,70.7,112.9,63.016c-19.659,2.563-27.521-0.511-42.128-23.066C56.17,62.505,48.304,65.579,28.645,63.016
			C28.083,70.7,35.948,80.44,48.868,86.078c-10.675,10.253-26.961,7.688-35.952,5.124c0,13.843,3.935,26.653,20.222,33.832
			c-16.287,5.635-33.137,0-33.137,0s5.972,38.475,53.922,44.397v20.18H71.33h17.413v-20.343
			c46.904-6.388,52.804-44.234,52.804-44.234S124.693,130.668,108.406,125.033z M28.588,106.052c0-2.84,2.305-5.146,5.147-5.146
			c2.844,0,5.147,2.306,5.147,5.146c0,2.845-2.303,5.149-5.147,5.149S28.588,108.896,28.588,106.052z M40.942,152.513
			c-3.483,0-6.305-2.82-6.305-6.308c0-3.48,2.822-6.303,6.305-6.303c3.483,0,6.305,2.822,6.305,6.303
			C47.247,149.692,44.425,152.513,40.942,152.513z M58.444,119.438c-3.41,0-6.177-2.765-6.177-6.177
			c0-3.411,2.767-6.177,6.177-6.177c3.413,0,6.18,2.766,6.18,6.177C64.624,116.673,61.857,119.438,58.444,119.438z M64.516,72.594
			c0-3.755,3.046-6.799,6.797-6.799c3.755,0,6.798,3.044,6.798,6.799c0,3.75-3.044,6.799-6.798,6.799
			C67.562,79.394,64.516,76.344,64.516,72.594z M69.999,133.856c0-3.003,2.433-5.438,5.437-5.438c3.003,0,5.437,2.434,5.437,5.438
			c0,3.002-2.434,5.435-5.437,5.435C72.431,139.291,69.999,136.858,69.999,133.856z M84.186,164.74
			c-2.845,0-5.147-2.303-5.147-5.147c0-2.842,2.303-5.146,5.147-5.146c2.842,0,5.147,2.304,5.147,5.146
			C89.333,162.438,87.028,164.74,84.186,164.74z M97.57,109.145c-2.843,0-5.147-2.306-5.147-5.149c0-2.841,2.305-5.146,5.147-5.146
			c2.844,0,5.147,2.305,5.147,5.146C102.717,106.839,100.414,109.145,97.57,109.145z M114.044,146.209
			c-2.843,0-5.148-2.305-5.148-5.149c0-2.84,2.306-5.146,5.148-5.146c2.842,0,5.147,2.306,5.147,5.146
			C119.192,143.904,116.886,146.209,114.044,146.209z"/>
	</g>
</g>
</svg>
