<?xml version="1.0" encoding="utf-8"?>
<!-- Generator: Adobe Illustrator 12.0.0, SVG Export Plug-In . SVG Version: 6.00 Build 51448)  -->
<!DOCTYPE svg PUBLIC "-//W3C//DTD SVG 1.1//EN" "http://www.w3.org/Graphics/SVG/1.1/DTD/svg11.dtd" [
	<!ENTITY ns_svg "http://www.w3.org/2000/svg">
	<!ENTITY ns_xlink "http://www.w3.org/1999/xlink">
]>
<svg  version="1.1" xmlns="&ns_svg;" xmlns:xlink="&ns_xlink;" width="175.017" height="201.431" viewBox="0 0 175.017 201.431"
	 overflow="visible" enable-background="new 0 0 175.017 201.431" xml:space="preserve">
<g id="レイヤー_1">
</g>
<g id="_x32_">
	<g>
		<path d="M96.856,167.486v-20.757c0-2.098-1.707-3.805-3.806-3.805H81.964c-2.102,0-3.804,1.707-3.804,3.805v20.757
			c0,2.1,1.702,3.801,3.804,3.801h11.087C95.149,171.287,96.856,169.586,96.856,167.486z"/>
		<path d="M46.753,167.777l25.294,0.547v-20.909l-25.294-12.872c-1.854-0.73-3.504-0.026-4.878,1.056
			c-1.375,1.079-2.178,2.73-2.178,4.485l-0.002,22.151c0,1.748,0.805,3.404,2.18,4.486
			C43.249,167.804,44.754,167.823,46.753,167.777z"/>
		<path d="M133.137,166.722c1.377-1.086,2.18-2.733,2.18-4.486l0.005-22.155c0-1.743-0.808-3.402-2.181-4.481
			c-1.378-1.082-3.03-1.862-4.878-1.056l-25.293,12.872l-0.003,20.909l25.296-0.548
			C130.329,167.823,131.763,167.804,133.137,166.722z"/>
		<path d="M60.417,173.822c-8.567,7.865-23.045,12.348-23.045,12.348l11.506,4.618l1.036,10.643
			c15.754-6.121,26.706-18.412,31.888-27.595c-0.036,0-0.521,0-1.316-0.014H60.417z"/>
		<path d="M94.529,173.822c-0.793,0.014-1.283,0.014-1.313,0.014c5.184,9.183,16.132,21.474,31.885,27.595l1.038-10.645
			l11.502-4.619c0,0-14.473-4.479-23.042-12.345H94.529L94.529,173.822z"/>
		<path d="M175.017,87.092c0-3.617-1.31-6.923-3.476-9.486c1.546-2.978,2.094-6.499,1.288-10.03
			c-0.876-3.849-3.198-6.989-6.251-9.001c1.065-3.499,0.846-7.4-0.938-10.919c-1.778-3.521-4.781-6.005-8.226-7.22
			c0.19-3.65-0.955-7.376-3.525-10.363c-2.569-2.99-6.074-4.679-9.714-5.04c-0.681-3.589-2.683-6.931-5.888-9.219
			c-3.216-2.293-7.028-3.096-10.648-2.573c-1.524-3.323-4.277-6.095-7.947-7.548c-3.675-1.453-7.579-1.314-10.969,0.071
			c-2.281-2.862-5.62-4.884-9.535-5.407c-3.901-0.524-7.647,0.546-10.594,2.699c-2.896-2.225-6.607-3.392-10.52-2.97
			c-3.927,0.42-7.317,2.356-9.67,5.151C65.057,3.77,61.158,3.528,57.45,4.881c-3.705,1.355-6.527,4.051-8.139,7.333
			c-3.599-0.618-7.436,0.089-10.703,2.294c-3.267,2.203-5.353,5.497-6.133,9.064c-3.646,0.263-7.192,1.864-9.84,4.782
			c-2.646,2.921-3.887,6.618-3.786,10.271c-3.48,1.125-6.551,3.53-8.419,7.004c-1.876,3.476-2.195,7.364-1.22,10.892
			c-3.109,1.937-5.515,5.016-6.489,8.84c-0.979,3.822-0.348,7.671,1.444,10.856C1.623,78.837,0.037,82.392,0,86.331v0.004
			c-0.033,3.934,1.497,7.515,3.99,10.177c-1.847,3.154-2.541,6.989-1.635,10.829c0.913,3.841,3.26,6.961,6.336,8.95
			c-1.04,3.509-0.787,7.401,1.023,10.909c1.813,3.504,4.837,5.96,8.293,7.15c-0.161,3.65,1.015,7.362,3.611,10.33
			c2.593,2.967,6.118,4.628,9.754,4.952c0.424,2.121,1.32,4.147,2.642,5.923l0.004-15.479c0-3.517,1.585-6.775,4.352-8.947
			c2.156-1.698,4.465-2.563,6.849-2.563c1.228,0,2.444,0.231,3.608,0.69c0.173,0.068,0.336,0.144,0.498,0.222l24.472,12.45
			c1.653-2.797,4.687-4.68,8.166-4.68h11.087c3.479,0,6.516,1.884,8.169,4.683l24.471-12.453c0.097-0.047,0.199-0.093,0.299-0.139
			c1.228-0.537,2.51-0.809,3.816-0.809c2.348,0,4.65,0.877,6.85,2.608c2.715,2.127,4.344,5.477,4.344,8.941l-0.003,15.108
			c1.017-1.553,1.716-3.277,2.091-5.063c3.64-0.294,7.178-1.923,9.798-4.865c2.622-2.945,3.832-6.65,3.702-10.303
			c3.469-1.156,6.513-3.591,8.358-7.075c1.842-3.494,2.128-7.392,1.121-10.908c3.091-1.958,5.469-5.06,6.413-8.895
			c0.944-3.832,0.283-7.675-1.541-10.841C173.46,94.596,175.017,91.027,175.017,87.092z M31.117,38.589
			c2.396,0,4.339,1.943,4.339,4.337c0,2.396-1.943,4.337-4.339,4.337c-2.394,0-4.336-1.941-4.336-4.337
			C26.781,40.532,28.723,38.589,31.117,38.589z M16.921,72.108c0-2.394,1.942-4.338,4.34-4.338c2.396,0,4.335,1.944,4.335,4.338
			c0,2.396-1.939,4.339-4.335,4.339C18.862,76.447,16.921,74.504,16.921,72.108z M24.02,123.767c-2.396,0-4.336-1.944-4.336-4.339
			c0-2.396,1.939-4.34,4.336-4.34c2.397,0,4.337,1.944,4.337,4.34C28.357,121.822,26.417,123.767,24.02,123.767z M33.484,104.049
			c-2.396,0-4.339-1.943-4.339-4.337c0-2.395,1.943-4.339,4.339-4.339s4.339,1.944,4.339,4.339
			C37.824,102.106,35.88,104.049,33.484,104.049z M113.927,35.434c2.396,0,4.339,1.943,4.339,4.338c0,2.396-1.942,4.339-4.339,4.339
			c-2.395,0-4.338-1.943-4.338-4.339C109.589,37.377,111.532,35.434,113.927,35.434z M87.505,10.986
			c2.399,0,4.339,1.944,4.339,4.338s-1.939,4.338-4.339,4.338c-2.394,0-4.333-1.942-4.333-4.338
			C83.172,12.928,85.111,10.986,87.505,10.986z M58.326,29.125c2.395,0,4.338,1.944,4.338,4.338c0,2.396-1.943,4.339-4.338,4.339
			c-2.396,0-4.337-1.943-4.337-4.339C53.989,31.069,55.931,29.125,58.326,29.125z M124.407,98.206
			c-0.78,2.299-0.951,4.65-0.62,6.898c-2.059,0.958-3.931,2.402-5.418,4.324c-1.489,1.927-2.412,4.104-2.823,6.346
			c-2.264,0.246-4.507,1.009-6.535,2.358h0.005c-2.022,1.34-3.601,3.102-4.707,5.082c-2.207-0.491-4.568-0.494-6.913,0.117
			c-2.353,0.616-4.413,1.771-6.103,3.29c-1.947-1.189-4.191-1.955-6.625-2.126c-2.421-0.174-4.744,0.26-6.831,1.154
			c-1.45-1.744-3.314-3.188-5.545-4.134c-2.238-0.952-4.576-1.294-6.839-1.119c-0.811-2.129-2.115-4.105-3.93-5.729
			c-1.813-1.622-3.918-2.703-6.121-3.271c-0.083-2.274-0.685-4.563-1.881-6.68c-1.19-2.111-2.832-3.809-4.727-5.054
			c0.653-2.172,0.828-4.521,0.387-6.904c-0.442-2.394-1.451-4.541-2.848-6.34c1.332-1.85,2.252-4.033,2.601-6.448
			c0.35-2.398,0.086-4.743-0.658-6.887c1.849-1.319,3.423-3.076,4.531-5.234c1.107-2.162,1.619-4.471,1.615-6.743
			c2.179-0.653,4.246-1.817,5.996-3.507c1.747-1.693,2.975-3.716,3.701-5.874c2.275,0.081,4.592-0.35,6.794-1.387
			c2.188-1.032,3.998-2.545,5.378-4.343c2.12,0.811,4.454,1.155,6.867,0.885c2.42-0.266,4.639-1.119,6.534-2.384
			c1.747,1.454,3.855,2.532,6.231,3.055c2.369,0.519,4.726,0.427,6.919-0.154c1.179,1.936,2.818,3.636,4.892,4.899
			c2.077,1.263,4.345,1.939,6.617,2.096c0.496,2.226,1.504,4.369,3.064,6.234c1.562,1.869,3.491,3.236,5.584,4.114
			c-0.241,2.26,0.019,4.604,0.894,6.868c0.868,2.263,2.249,4.174,3.944,5.684c-0.968,2.06-1.477,4.369-1.385,6.799
			c0.011,0.25,0.044,0.505,0.068,0.758c-0.013,0.255-0.041,0.509-0.041,0.769c0,2.434,0.603,4.725,1.653,6.748
			C126.492,93.94,125.194,95.91,124.407,98.206z M143.503,80.388c-2.397,0-4.339-1.941-4.339-4.338c0-2.394,1.941-4.337,4.339-4.337
			c2.396,0,4.337,1.943,4.337,4.337C147.84,78.446,145.899,80.388,143.503,80.388z M146.261,53.572c-2.395,0-4.338-1.94-4.338-4.338
			c0-2.394,1.943-4.334,4.338-4.334s4.339,1.94,4.339,4.334C150.6,51.632,148.657,53.572,146.261,53.572z M156.907,109.571
			c-2.395,0-4.333-1.943-4.333-4.337c0-2.396,1.938-4.34,4.333-4.34c2.399,0,4.34,1.944,4.34,4.34
			C161.247,107.627,159.307,109.571,156.907,109.571z"/>
	</g>
</g>
</svg>
