<?xml version="1.0" encoding="utf-8"?>
<!-- Generator: Adobe Illustrator 12.0.0, SVG Export Plug-In . SVG Version: 6.00 Build 51448)  -->
<!DOCTYPE svg PUBLIC "-//W3C//DTD SVG 1.1//EN" "http://www.w3.org/Graphics/SVG/1.1/DTD/svg11.dtd" [
	<!ENTITY ns_svg "http://www.w3.org/2000/svg">
	<!ENTITY ns_xlink "http://www.w3.org/1999/xlink">
]>
<svg  version="1.1" xmlns="&ns_svg;" xmlns:xlink="&ns_xlink;" width="486.793" height="134.669" viewBox="0 0 486.793 134.669"
	 overflow="visible" enable-background="new 0 0 486.793 134.669" xml:space="preserve">
<g id="レイヤー_1">
	<g>
		<path d="M28.116,64.239C11.646,64.239,0,52.229,0,35.304C0,17.562,12.557,3.731,29.208,3.731c5.824,0,12.375,1.638,16.561,2.912
			c0.273-1.456,0.728-4.731,1.274-5.823C47.224,0.273,47.588,0,47.952,0c0.455,0,0.728,0.364,0.728,0.91
			c0,0.728-0.819,8.553-0.819,12.375c0,4.095,0.455,11.738,0.455,12.648c0,0.91-0.273,1.273-0.728,1.273
			c-0.546,0-0.728-0.364-0.91-1.183c-0.819-3.003-1.365-10.373-1.365-12.193c-3.73-3.002-10.191-7.37-18.653-7.37
			c-11.556,0-21.11,7.825-21.11,22.475c0,16.833,11.192,32.028,26.569,32.028c10.555,0,14.376-7.097,15.65-7.097
			c0.364,0,0.728,0.273,0.728,0.637c0,0.273-0.182,0.637-0.364,0.91C46.496,58.052,39.035,64.239,28.116,64.239z"/>
		<path d="M101.545,32.848c0-7.37,0-19.29-0.364-25.386c-1.365-0.091-5.641-0.455-7.643-1.092c-0.273-0.091-0.637-0.364-0.637-0.728
			c0-0.546,0.364-0.91,0.91-0.91c0.546,0,4.823,0.546,10.737,0.546c5.915,0,10.191-0.546,10.737-0.545c0.546,0,0.91,0.364,0.91,0.91
			c0,0.364-0.364,0.637-0.637,0.728c-2.002,0.637-6.278,1.001-7.643,1.092c-0.364,6.096-0.364,18.107-0.364,26.478
			s0,20.473,0.364,26.569c1.365,0.091,5.641,0.455,7.643,1.092c0.273,0.091,0.637,0.364,0.637,0.728c0,0.546-0.364,0.91-0.91,0.91
			s-4.822-0.546-10.737-0.546c-5.914,0-10.191,0.546-10.737,0.546s-0.91-0.364-0.91-0.91c0-0.364,0.364-0.637,0.637-0.728
			c2.002-0.637,6.278-1.001,7.643-1.092c0.364-6.097,0.364-18.198,0.364-25.568H71.154c0,7.37,0,19.472,0.364,25.568
			c1.365,0.091,5.641,0.455,7.643,1.092c0.273,0.091,0.637,0.364,0.637,0.728c0,0.546-0.364,0.91-0.91,0.91
			s-4.822-0.546-10.737-0.546s-10.191,0.546-10.737,0.546s-0.91-0.364-0.91-0.91c0-0.364,0.364-0.637,0.637-0.728
			c2.002-0.637,6.278-1.001,7.643-1.092c0.364-6.097,0.364-18.198,0.364-26.569s0-20.382-0.364-26.478
			c-1.365-0.091-5.641-0.455-7.643-1.092c-0.273-0.091-0.637-0.364-0.637-0.728c0-0.546,0.364-0.91,0.91-0.91
			c0.546,0,4.822,0.546,10.737,0.546s10.191-0.546,10.737-0.545c0.546,0,0.91,0.364,0.91,0.91c0,0.364-0.364,0.637-0.637,0.728
			c-2.002,0.637-6.278,1.001-7.643,1.092c-0.364,6.096-0.364,18.016-0.364,25.386H101.545z"/>
		<path d="M144.582,34.212c2.821,0,16.651,0,16.651-12.102c0-9.281-7.917-15.56-17.197-15.56c-2.093,0-5.732,0.819-7.461,0.91
			c-0.364,6.369-0.364,18.835-0.364,26.478s0,20.2,0.364,26.569c1.547,0.091,6.278,0.455,8.553,1.092
			c0.273,0.091,0.637,0.364,0.637,0.728c0,0.546-0.364,0.91-0.91,0.91c-0.637,0-5.187-0.546-11.646-0.546
			c-5.915,0-10.191,0.546-10.737,0.546c-0.546,0-0.91-0.364-0.91-0.91c0-0.364,0.364-0.637,0.637-0.728
			c2.002-0.637,6.278-1.001,7.644-1.092c0.364-6.097,0.364-18.198,0.364-26.569s0-20.382-0.364-26.478
			c-1.365-0.091-5.642-0.455-7.644-1.092c-0.273-0.091-0.637-0.364-0.637-0.728c0-0.546,0.364-0.91,0.91-0.91
			c0.273,0,1.456,0.091,3.366,0.273c1.911,0.091,4.458,0.273,7.371,0.273c1.819,0,4.458-0.182,7.188-0.455
			c2.729-0.182,5.55-0.364,7.643-0.364c8.462,0,19.563,2.912,19.563,14.376c0,12.284-13.285,17.288-21.564,17.288
			c1.365,1.729,3.912,4.823,9.008,11.283c9.372,11.101,9.918,13.648,13.921,13.648c2.093,0,3.003-1.183,3.73-1.183
			c0.364,0,0.637,0.273,0.637,0.546c0,1.456-4.095,4.186-8.371,4.186c-3.549,0-5.732-1.82-7.916-4.367
			c-5.278-6.551-12.102-16.378-17.106-22.566c-0.819-1-1.82-2.093-1.82-2.729c0-0.455,0.273-0.728,1.001-0.728H144.582z"/>
		<path d="M199.266,61.601c0.273,0.091,0.637,0.364,0.637,0.728c0,0.546-0.364,0.91-0.91,0.91s-4.823-0.546-10.737-0.546
			c-5.915,0-10.191,0.546-10.737,0.546s-0.91-0.364-0.91-0.91c0-0.364,0.364-0.637,0.637-0.728c2.001-0.637,6.278-1.001,7.643-1.092
			c0.364-6.097,0.364-18.198,0.364-26.569s0-20.382-0.364-26.478c-1.365-0.091-5.642-0.455-7.643-1.092
			c-0.273-0.091-0.637-0.364-0.637-0.728c0-0.546,0.364-0.91,0.91-0.91c0.546,0,4.822,0.546,10.737,0.546
			c5.914,0,10.191-0.546,10.737-0.545c0.546,0,0.91,0.364,0.91,0.91c0,0.364-0.364,0.637-0.637,0.728
			c-2.002,0.637-6.278,1.001-7.643,1.092c-0.364,6.369-0.364,18.835-0.364,26.478s0,20.2,0.364,26.569
			C192.988,60.6,197.264,60.963,199.266,61.601z"/>
		<path d="M244.852,21.929c0,0.637-0.364,1.001-0.637,1.001c-1.456,0-1.456-6.096-1.638-9.19c-4.276-3.458-8.826-6.824-16.196-6.824
			c-7.461,0-15.287,4.914-15.287,13.285c0,10.555,15.741,9.19,25.75,11.829c7.643,2.001,10.737,5.823,10.737,12.83
			c0,11.646-9.19,19.381-21.383,19.381c-5.823,0-10.464-1.729-15.195-3.367c-0.728,2.457-1.456,5.732-2.457,5.732
			c-0.182,0-0.546-0.182-0.546-0.637c0-0.91,0.273-0.546,0.728-4.458c0.273-2.547,0.364-6.46,0.364-8.28
			c0-3.64-0.637-9.736-0.637-10.191c0-0.546,0.455-0.91,0.728-0.91c1.456,0,2.002,7.461,2.275,11.101
			c3.002,2.729,9.645,7.825,18.198,7.825c8.28,0,15.377-5.277,15.377-13.103c0-10.646-15.741-9.008-24.567-11.192
			c-7.279-1.82-11.92-6.369-11.92-14.286c0-10.918,10.009-18.744,19.927-18.744c6.096,0,11.919,2.274,14.74,3.275
			c0.728-2.093,1.456-5.368,2.457-5.368c0.273,0,0.546,0.273,0.546,0.637c0,0.364-0.455,2.184-0.728,4.823
			c-0.364,2.457-0.637,6.733-0.637,8.917V21.929z"/>
		<path d="M290.801,63.238c-0.546,0-4.822-0.546-10.736-0.546s-10.191,0.546-10.737,0.546s-0.909-0.364-0.909-0.91
			c0-0.364,0.363-0.637,0.637-0.728c2.002-0.637,6.277-1.001,7.643-1.092c0.364-6.097,0.364-18.016,0.364-26.387
			c0-8.644,0-20.837-0.364-27.115c-1.273-0.091-2.548-0.091-3.821-0.091c-5.823,0-10.919,1.183-15.469,2.729
			c-0.182,2.366-0.546,8.189-1.911,8.189c-0.728,0-0.91-0.455-0.91-0.91c0-1.456,0.546-6.369,0.546-8.826
			c0-2.001-0.546-6.005-0.546-7.279c0-0.546,0.273-0.819,0.91-0.819c0.91,0,1.092,1.729,1.638,3.73
			c6.096,1.365,17.379,1.547,22.93,1.547c5.55,0,16.833-0.182,22.93-1.546C303.539,1.729,303.721,0,304.631,0
			c0.637,0,0.91,0.273,0.91,0.819c0,1.274-0.546,5.278-0.546,7.279c0,2.457,0.546,7.37,0.546,8.826c0,0.455-0.182,0.91-0.91,0.91
			c-1.364,0-1.729-5.824-1.91-8.189c-4.55-1.547-9.645-2.729-15.469-2.729c-1.273,0-2.547,0-3.821,0.091
			c-0.364,6.278-0.364,18.471-0.364,27.115c0,8.371,0,20.291,0.364,26.387c1.364,0.091,5.642,0.455,7.644,1.092
			c0.272,0.091,0.637,0.364,0.637,0.728C291.711,62.875,291.347,63.238,290.801,63.238z"/>
		<path d="M359.953,4.823c1.184,0.182,2.912,0.455,4.004,0.455c2.82,0,7.461-0.455,8.461-0.455c0.547,0,0.91,0.364,0.91,0.728
			c0,0.728-0.545,0.91-1.729,1.092c-1.82,0.455-3.549,0.637-4.731,0.91c0,7.917,2.911,41.583,4.55,52.865
			c1.455,0.273,3.457,0.455,5.641,0.91c1.184,0.182,1.729,0.364,1.729,1.092c0,0.455-0.364,0.819-0.909,0.819
			c-0.638,0-5.551-0.546-10.373-0.546c-4.459,0-10.92,0.546-11.738,0.546c-0.546,0-0.91-0.364-0.91-0.819
			c0-0.728,0.546-0.91,1.729-1.092c2.912-0.455,5.732-0.637,7.553-0.91c0-9.736-2.457-36.214-3.185-45.495
			c-0.091-1.638-0.272-3.275-0.272-4.913h-0.183c-1.364,3.73-5.915,16.014-10.646,28.844c-3.094,8.917-4.641,13.285-5.277,14.832
			c-0.364,1.092-0.637,2.093-1.365,2.093s-1.001-1.183-1.456-2.093c-7.37-15.014-12.829-26.66-17.562-35.668h-0.182
			c-1.183,10.737-2.639,24.294-2.639,37.761c0,1.638,0.092,3.093,0.092,4.64c1.819,0.273,4.641,0.455,7.552,0.91
			c1.183,0.182,1.729,0.364,1.729,1.092c0,0.455-0.364,0.819-0.909,0.819c-0.729,0-5.732-0.546-10.828-0.546
			c-4.277,0-8.099,0.546-8.553,0.546c-0.547,0-0.91-0.364-0.91-0.819c0-0.728,0.545-0.91,1.729-1.092
			c2.002-0.455,4.004-0.637,5.368-0.91c2.639-14.194,4.641-33.211,5.46-46.132c-1.184-2.093-2.275-4.186-2.73-5.095
			c-1.729-3.458-5.732-1.638-5.732-3.458c0-0.728,0.455-0.91,1.184-0.91c1.092,0,3.275,0.455,4.094,0.455
			c1.092,0,3.094-0.182,6.097-0.455c1.093,3.458,5.46,12.739,9.19,20.382l10.463,21.292c1.184-2.457,3.641-9.099,5.643-14.74
			L359.953,4.823z"/>
		<path d="M398.623,44.676c-1.183,3.276-3.639,11.101-4.913,15.833c1.911,0.091,7.462,0.455,10.282,1.092
			c0.272,0.091,0.637,0.364,0.637,0.728c0,0.546-0.364,0.91-0.91,0.91s-5.186-0.546-11.737-0.546
			c-5.732,0-10.009,0.546-10.556,0.546c-0.545,0-0.909-0.364-0.909-0.91c0-0.364,0.364-0.637,0.637-0.728
			c2.002-0.637,6.097-1.001,7.462-1.092c3.82-6.551,9.28-19.745,13.738-31.119c2.549-6.37,4.823-12.284,5.915-14.649
			c-1.819-3.913-3.821-8.189-5.368-11.283c2.002-0.637,4.458-1.82,6.732-3.003c1.639,5.369,8.371,21.838,11.829,29.845
			c4.55,9.918,8.735,19.836,13.376,30.209c1.183,0.091,5.004,0.455,6.732,1.092c0.273,0.091,0.637,0.364,0.637,0.728
			c0,0.546-0.363,0.91-0.909,0.91s-4.822-0.546-10.919-0.546c-6.915,0-11.465,0.546-12.102,0.546c-0.546,0-0.91-0.364-0.91-0.91
			c0-0.364,0.364-0.637,0.637-0.728c2.275-0.637,7.461-1.001,9.008-1.092c-1.182-3.367-4.094-11.101-6.096-15.833H398.623z
			 M420.098,42.583c-3.641-8.644-7.826-18.38-10.646-25.295c-3.275,8.007-9.189,22.475-10.191,25.295H420.098z"/>
		<path d="M484.063,21.929c0,0.637-0.363,1.001-0.637,1.001c-1.455,0-1.455-6.096-1.638-9.19c-4.276-3.458-8.825-6.824-16.196-6.824
			c-7.461,0-15.286,4.914-15.286,13.285c0,10.555,15.741,9.19,25.751,11.829c7.643,2.001,10.736,5.823,10.736,12.83
			c0,11.646-9.19,19.381-21.383,19.381c-5.823,0-10.464-1.729-15.195-3.367c-0.729,2.457-1.456,5.732-2.457,5.732
			c-0.182,0-0.546-0.182-0.546-0.637c0-0.91,0.272-0.546,0.728-4.458c0.273-2.547,0.365-6.46,0.365-8.28
			c0-3.64-0.638-9.736-0.638-10.191c0-0.546,0.455-0.91,0.728-0.91c1.456,0,2.002,7.461,2.275,11.101
			c3.002,2.729,9.645,7.825,18.197,7.825c8.281,0,15.378-5.277,15.378-13.103c0-10.646-15.741-9.008-24.567-11.192
			c-7.279-1.82-11.92-6.369-11.92-14.286c0-10.918,10.01-18.744,19.928-18.744c6.096,0,11.919,2.274,14.74,3.275
			c0.728-2.093,1.455-5.368,2.456-5.368c0.272,0,0.546,0.273,0.546,0.637c0,0.364-0.455,2.184-0.728,4.823
			c-0.364,2.457-0.638,6.733-0.638,8.917V21.929z"/>
	</g>
	<g>
		<path d="M147.538,133.031c-0.546,0-4.822-0.546-10.737-0.546c-5.914,0-10.191,0.546-10.737,0.546s-0.91-0.363-0.91-0.909
			c0-0.364,0.364-0.638,0.637-0.729c2.002-0.637,6.278-1.001,7.643-1.092c0.364-6.097,0.364-18.016,0.364-26.387
			c0-8.645,0-20.837-0.364-27.115c-1.274-0.091-2.548-0.091-3.821-0.091c-5.824,0-10.919,1.183-15.469,2.729
			c-0.182,2.366-0.546,8.189-1.911,8.189c-0.728,0-0.91-0.455-0.91-0.91c0-1.456,0.546-6.369,0.546-8.826
			c0-2.001-0.546-6.005-0.546-7.279c0-0.546,0.273-0.819,0.91-0.819c0.91,0,1.092,1.729,1.638,3.73
			c6.097,1.365,17.379,1.547,22.93,1.547s16.833-0.182,22.93-1.546c0.546-2.002,0.728-3.731,1.638-3.731
			c0.637,0,0.91,0.273,0.91,0.819c0,1.274-0.546,5.278-0.546,7.279c0,2.457,0.546,7.37,0.546,8.826c0,0.455-0.182,0.91-0.91,0.91
			c-1.365,0-1.729-5.824-1.911-8.189c-4.55-1.547-9.645-2.729-15.469-2.729c-1.273,0-2.547,0-3.821,0.091
			c-0.364,6.278-0.364,18.471-0.364,27.115c0,8.371,0,20.29,0.364,26.387c1.365,0.091,5.641,0.455,7.643,1.092
			c0.273,0.091,0.637,0.364,0.637,0.729C148.448,132.668,148.084,133.031,147.538,133.031z"/>
		<path d="M199.311,134.032c-17.925,0-29.936-13.375-29.936-29.208c0-17.196,12.193-31.3,31.301-31.3
			c17.925,0,29.936,13.375,29.936,29.207C230.612,119.929,218.419,134.032,199.311,134.032z M226.608,108.373
			c0-17.47-16.651-31.391-31.483-31.391c-10.828,0-21.747,9.463-21.747,22.202c0,17.47,16.651,31.392,31.483,31.392
			C215.78,130.575,226.608,121.112,226.608,108.373z"/>
		<path d="M284.934,133.214c-0.273,0.637-0.637,1.455-1.001,1.455c-0.455,0-0.819-0.818-1.183-1.455l-8.463-21.383
			c-2.365,6.096-7.188,17.743-8.462,21.383c-0.182,0.454-0.637,1.455-1.092,1.455s-1.001-1.001-1.274-1.455
			c-7.188-16.651-18.289-44.222-23.293-55.959c-1.001-0.091-3.64-0.455-5.095-1.092c-0.273-0.091-0.637-0.364-0.637-0.728
			c0-0.546,0.364-0.91,0.91-0.91c1.183,0,9.463,0.546,18.835,0.546c9.646,0,17.651-0.546,18.471-0.545c0.546,0,0.91,0.364,0.91,0.91
			c0,0.364-0.364,0.637-0.638,0.728c-1.455,0.637-5.277,1.001-6.277,1.092c3.184,8.007,6.369,16.014,9.645,24.021
			c2.729-7.098,6.278-18.107,7.643-24.021c-1-0.091-5.367-0.455-6.824-1.092c-0.272-0.091-0.637-0.364-0.637-0.728
			c0-0.546,0.364-0.91,0.91-0.91c1.001,0,8.553,0.546,18.835,0.546c8.371,0,15.923-0.546,16.742-0.545c0.546,0,0.91,0.364,0.91,0.91
			c0,0.364-0.272,0.637-0.638,0.728c-1.364,0.637-3.73,1.001-4.549,1.092c-1.638,3.549-9.827,22.656-14.377,33.484L284.934,133.214z
			 M247.627,77.255c6.369,16.014,12.738,32.028,19.108,48.225c1.364-3.185,4.186-10.282,6.552-16.105
			c-4.368-10.646-8.736-21.292-13.285-32.119H247.627z M292.576,109.283c3.458-8.826,9.1-25.477,10.919-32.028h-14.923
			c-2.002,4.549-8.553,20.382-11.1,26.933l8.553,21.929L292.576,109.283z"/>
		<path d="M366.188,132.485c0,1.274-0.273,1.547-0.82,1.547c-0.454,0-1-0.728-1.547-1.547c-10.19-13.921-26.295-34.03-37.032-47.678
			l-0.183,0.182c0.092,2.457,0.092,6.916,0.092,10.009c0,13.011,0.546,29.299,1.819,35.304c1.638,0.091,6.643,0.455,9.099,1.092
			c0.273,0.091,0.638,0.364,0.638,0.729c0,0.546-0.364,0.909-0.91,0.909c-0.728,0-5.095-0.546-11.465-0.546
			c-5.277,0-8.825,0.546-9.28,0.546c-0.547,0-0.91-0.363-0.91-0.909c0-0.364,0.363-0.638,0.637-0.729
			c1.729-0.637,5.551-1.001,6.733-1.092c1.092-6.005,1.638-22.293,1.638-35.304c0-4.55-0.273-9.008-0.273-12.102
			c0-1-2.457-4.731-7.188-6.46c-0.637-0.182-0.819-0.546-0.819-0.728c0-0.728,0.364-1.092,1.183-1.092
			c1.184,0,3.822,0.455,4.914,0.455c1.273,0,3.094-0.273,4.641-0.455c0.637,0.819,1.547,2.275,2.457,3.458
			c6.824,9.099,28.752,37.033,33.757,42.947c0.364-2.365,0.546-7.097,0.546-10.736c0-11.92-0.546-27.57-1.547-33.029
			c-1.365-0.091-5.642-0.455-7.643-1.092c-0.273-0.091-0.638-0.364-0.638-0.728c0-0.546,0.364-0.91,0.91-0.91
			c0.455,0,4.367,0.546,10.1,0.546c4.913,0,8.645-0.546,9.19-0.545c0.545,0,0.91,0.364,0.91,0.91c0,0.273-0.365,0.637-0.638,0.728
			c-1.911,0.637-5.55,1.001-6.824,1.092c-1.274,5.459-1.819,21.109-1.819,33.029C365.914,118.564,366.187,129.574,366.188,132.485z"
			/>
	</g>
</g>
<g id="_x32_">
</g>
</svg>
